<?xml version="1.0" standalone="no"?>
<!DOCTYPE svg PUBLIC "-//W3C//DTD SVG 20010904//EN"
 "http://www.w3.org/TR/2001/REC-SVG-20010904/DTD/svg10.dtd">
<svg version="1.0" xmlns="http://www.w3.org/2000/svg"
 width="1536.000000pt" height="1536.000000pt" viewBox="0 0 1536.000000 1536.000000"
 preserveAspectRatio="xMidYMid meet">
<metadata>
Created by potrace 1.14, written by Peter Selinger 2001-2017
</metadata>
<g transform="translate(0.000000,1536.000000) scale(0.100000,-0.100000)"
fill="#000000" stroke="none">
<path d="M960 15353 c-14 -2 -59 -11 -100 -20 -41 -9 -77 -17 -80 -18 -3 0 -9
-3 -15 -6 -5 -4 -23 -9 -38 -13 -15 -4 -60 -22 -100 -40 -267 -126 -478 -358
-567 -626 -28 -82 -32 -97 -48 -185 -4 -22 -7 -924 -7 -2005 l0 -1965 28 -109
c113 -432 471 -760 907 -831 573 -93 1126 271 1269 833 31 121 34 177 34 695
0 268 2 487 4 487 2 0 714 -710 1581 -1579 1683 -1685 1620 -1624 1807 -1712
86 -40 219 -82 300 -94 88 -14 262 -13 352 1 402 63 737 343 876 730 24 67 31
95 43 174 3 19 9 53 13 75 26 150 -16 409 -93 579 -84 184 -103 205 -795 894
-2150 2142 -2501 2492 -2501 2495 0 2 217 4 483 4 265 0 511 3 547 7 376 41
715 278 880 614 33 67 81 195 82 219 0 5 4 18 9 30 22 58 32 309 17 413 -35
237 -146 457 -318 630 -170 170 -388 281 -625 319 -57 9 -3887 13 -3945 4z"/>
<path d="M10452 15345 c-440 -80 -788 -404 -898 -835 -23 -93 -28 -140 -28
-270 -1 -128 5 -177 30 -277 99 -400 417 -714 829 -816 105 -27 170 -29 673
-30 270 0 492 -2 492 -4 0 -2 -349 -352 -776 -776 -2109 -2099 -2363 -2355
-2407 -2417 -140 -201 -208 -407 -211 -640 -1 -143 7 -215 40 -326 68 -235
210 -438 408 -586 134 -100 334 -183 493 -205 71 -10 270 -9 338 2 143 21 316
90 456 180 76 49 95 68 2477 2459 408 410 744 746 746 746 1 0 3 -217 3 -482
0 -532 3 -584 38 -715 88 -329 328 -606 642 -741 75 -32 148 -56 208 -67 22
-5 47 -10 55 -12 44 -12 292 -10 367 3 411 72 756 371 881 764 54 170 52 64
49 2190 l-2 1965 -28 100 c-107 385 -401 679 -771 770 -38 9 -79 20 -90 23
-12 4 -903 7 -1981 8 -1588 2 -1974 0 -2033 -11z"/>
<path d="M5995 7222 c-218 -34 -371 -91 -524 -194 -59 -40 -432 -408 -1648
-1625 -864 -865 -1573 -1573 -1576 -1573 -2 0 -4 224 -4 498 0 455 -2 527 -18
617 -24 130 -99 310 -180 430 -130 193 -381 375 -605 438 -128 36 -218 47
-355 42 -66 -2 -136 -7 -155 -10 -139 -24 -314 -96 -443 -182 -87 -58 -216
-184 -280 -275 -52 -73 -132 -226 -143 -273 -4 -16 -9 -34 -13 -40 -3 -5 -7
-14 -8 -20 -8 -35 -23 -94 -30 -120 -11 -45 -14 -3918 -2 -3990 77 -478 434
-845 904 -929 121 -21 3904 -22 4015 -1 162 32 299 86 421 167 88 59 93 63
184 153 162 163 265 361 309 600 15 80 16 298 1 374 -47 241 -150 437 -320
606 -181 181 -415 295 -661 321 -38 4 -286 7 -551 7 -266 0 -483 2 -483 5 0 2
708 711 1573 1575 1236 1235 1585 1589 1626 1650 78 115 151 284 167 384 3 21
8 41 9 44 7 11 16 94 19 176 17 460 -274 903 -703 1068 -98 38 -182 61 -261
71 -60 7 -233 11 -265 6z"/>
<path d="M9228 7225 c-2 -1 -40 -5 -84 -9 -264 -20 -541 -168 -734 -392 -118
-137 -219 -366 -246 -559 -10 -69 -11 -231 -3 -280 4 -22 10 -58 13 -80 19
-135 94 -311 194 -455 29 -41 616 -635 1619 -1636 l1574 -1570 -508 -1 c-279
0 -526 -3 -547 -7 -281 -47 -475 -144 -661 -331 -152 -152 -250 -335 -300
-560 -22 -97 -25 -317 -6 -420 65 -351 288 -647 608 -809 71 -35 193 -79 249
-90 16 -3 54 -9 84 -15 67 -12 3937 -9 3990 3 88 20 202 57 261 85 225 104
423 303 526 530 40 88 81 224 91 301 4 30 7 937 7 2015 l0 1960 -24 90 c-30
115 -79 235 -132 322 -23 37 -44 70 -48 73 -3 3 -25 30 -48 61 -110 144 -369
320 -523 354 -3 1 -25 7 -50 14 -90 26 -203 38 -323 35 -132 -4 -149 -6 -217
-24 -25 -7 -53 -14 -63 -16 -35 -6 -132 -45 -202 -81 -323 -163 -550 -488
-601 -858 -4 -27 -7 -274 -7 -547 0 -274 -2 -498 -4 -498 -4 0 -683 680 -2503
2510 -333 334 -634 630 -670 657 -184 140 -408 219 -647 228 -35 1 -64 1 -65
0z"/>
</g>
</svg>
