<?xml version="1.0" standalone="no"?>
<!DOCTYPE svg PUBLIC "-//W3C//DTD SVG 20010904//EN"
 "http://www.w3.org/TR/2001/REC-SVG-20010904/DTD/svg10.dtd">
<svg version="1.0" xmlns="http://www.w3.org/2000/svg"
 width="1536.000000pt" height="1536.000000pt" viewBox="0 0 1536.000000 1536.000000"
 preserveAspectRatio="xMidYMid meet">
<metadata>
Created by potrace 1.14, written by Peter Selinger 2001-2017
</metadata>
<g transform="translate(0.000000,1536.000000) scale(0.100000,-0.100000)"
fill="#000000" stroke="none">
<path d="M875 15340 c-413 -87 -730 -383 -842 -785 l-28 -100 0 -2000 0 -2000
28 -99 c119 -428 459 -740 894 -822 67 -12 123 -15 233 -11 174 6 292 33 434
100 125 60 203 114 310 217 186 179 303 415 335 675 7 54 11 279 11 560 l0
470 1583 -1581 c1718 -1717 1632 -1636 1830 -1721 255 -111 554 -122 817 -31
369 129 636 433 727 831 12 51 16 118 16 227 0 134 -3 168 -26 251 -47 178
-101 291 -202 424 -29 39 -752 765 -1606 1615 l-1552 1545 524 6 c438 5 536 9
594 22 231 55 398 144 557 295 227 217 348 499 348 812 0 291 -106 558 -307
771 -136 144 -325 258 -523 316 l-95 28 -1985 2 c-1916 2 -1988 1 -2075 -17z"/>
<path d="M10459 15350 c-234 -40 -467 -165 -632 -339 -201 -213 -307 -480
-307 -771 0 -314 121 -595 350 -814 179 -170 399 -275 645 -305 53 -6 282 -11
560 -11 l470 -1 -1576 -1572 c-1386 -1381 -1584 -1583 -1634 -1660 -218 -335
-245 -760 -69 -1111 59 -117 103 -177 213 -287 110 -109 179 -160 291 -215
290 -143 639 -151 939 -21 201 87 116 8 1828 1725 l1572 1577 1 -470 c0 -278
5 -507 11 -560 32 -260 149 -496 335 -675 107 -103 185 -157 310 -217 142 -67
260 -94 434 -100 110 -4 166 -1 233 11 433 82 768 388 894 817 l28 94 3 1975
c3 2176 6 2040 -59 2228 -107 305 -345 544 -651 651 -186 65 -54 61 -2197 60
-1070 -1 -1967 -5 -1992 -9z"/>
<path d="M5956 7219 c-172 -25 -332 -88 -491 -192 -40 -26 -588 -567 -1638
-1616 l-1577 -1576 0 470 c0 281 -4 506 -11 560 -32 260 -149 496 -335 675
-99 95 -174 150 -279 202 -268 135 -591 156 -871 57 -110 -39 -168 -68 -262
-131 -217 -146 -383 -378 -459 -638 l-28 -95 -3 -1965 c-2 -1463 0 -1984 9
-2040 53 -344 282 -656 597 -814 94 -47 226 -90 322 -105 56 -9 577 -11 2040
-9 l1965 3 95 28 c425 124 741 471 815 895 19 110 19 288 0 391 -44 231 -139
412 -305 585 -179 186 -415 303 -675 335 -54 7 -279 11 -560 11 l-470 0 1576
1578 c1049 1049 1590 1597 1616 1637 89 136 130 228 169 383 74 292 14 629
-156 883 -59 87 -209 239 -294 298 -228 157 -526 228 -790 190z"/>
<path d="M9100 7215 c-238 -38 -449 -145 -620 -315 -292 -291 -398 -699 -284
-1099 32 -115 111 -273 183 -368 36 -47 674 -692 1614 -1630 l1555 -1553 -471
0 c-283 0 -508 -4 -562 -11 -333 -41 -633 -230 -817 -513 -68 -106 -110 -203
-146 -335 -22 -84 -25 -117 -26 -261 -1 -188 12 -265 71 -415 141 -359 449
-617 828 -696 86 -18 176 -19 2031 -19 2121 0 2011 -3 2177 57 216 77 414 229
537 412 62 92 127 236 158 348 l27 98 3 1970 c2 1739 0 1980 -13 2052 -44 233
-147 427 -314 593 -148 147 -315 243 -519 297 -85 23 -117 26 -267 27 -186 1
-244 -8 -396 -64 -161 -59 -301 -152 -427 -284 -145 -153 -235 -324 -289 -551
-13 -58 -17 -156 -22 -594 l-6 -524 -1554 1561 c-1089 1094 -1576 1577 -1630
1615 -241 173 -539 246 -821 202z"/>
</g>
</svg>
